<svg width="33" height="13" viewBox="0 0 33 13" fill="none" xmlns="http://www.w3.org/2000/svg">
<path d="M0.332 13V0.219999H8.918V2.398H2.816V5.692H7.892V7.708H2.816V13H0.332ZM10.6679 13V0.219999H16.0859C16.6739 0.219999 17.2139 0.345999 17.7059 0.598C18.2099 0.838 18.6419 1.162 19.0019 1.57C19.3619 1.966 19.6439 2.422 19.8479 2.938C20.0519 3.442 20.1539 3.952 20.1539 4.468C20.1539 5.008 20.0579 5.536 19.8659 6.052C19.6739 6.556 19.4039 7.006 19.0559 7.402C18.7079 7.798 18.2879 8.116 17.7959 8.356C17.3039 8.596 16.7639 8.716 16.1759 8.716H13.1519V13H10.6679ZM13.1519 6.538H16.0319C16.4879 6.538 16.8659 6.352 17.1659 5.98C17.4779 5.608 17.6339 5.104 17.6339 4.468C17.6339 4.144 17.5859 3.856 17.4899 3.604C17.3939 3.34 17.2679 3.118 17.1119 2.938C16.9559 2.758 16.7699 2.626 16.5539 2.542C16.3499 2.446 16.1399 2.398 15.9239 2.398H13.1519V6.538ZM21.8828 13V0.219999H26.5268C27.5708 0.219999 28.4828 0.387999 29.2628 0.723999C30.0548 1.06 30.7148 1.516 31.2428 2.092C31.7708 2.668 32.1668 3.346 32.4308 4.126C32.6948 4.894 32.8268 5.716 32.8268 6.592C32.8268 7.564 32.6768 8.446 32.3768 9.238C32.0888 10.018 31.6688 10.69 31.1168 11.254C30.5648 11.806 29.8988 12.238 29.1188 12.55C28.3508 12.85 27.4868 13 26.5268 13H21.8828ZM30.3248 6.592C30.3248 5.98 30.2408 5.416 30.0728 4.9C29.9048 4.384 29.6588 3.94 29.3348 3.568C29.0108 3.196 28.6088 2.908 28.1288 2.704C27.6608 2.5 27.1268 2.398 26.5268 2.398H24.3668V10.822H26.5268C27.1388 10.822 27.6788 10.714 28.1468 10.498C28.6268 10.282 29.0228 9.988 29.3348 9.616C29.6588 9.232 29.9048 8.782 30.0728 8.266C30.2408 7.75 30.3248 7.192 30.3248 6.592Z" fill="black"/>
</svg>
